<svg width="24" height="24" viewBox="0 0 24 24" fill="none" xmlns="http://www.w3.org/2000/svg">
<path fill-rule="evenodd" clip-rule="evenodd" d="M0 3.6C0 2.64522 0.379285 1.72955 1.05442 1.05442C1.72955 0.379285 2.64522 0 3.6 0H20.4C21.3548 0 22.2705 0.379285 22.9456 1.05442C23.6207 1.72955 24 2.64522 24 3.6V20.4C24 21.3548 23.6207 22.2705 22.9456 22.9456C22.2705 23.6207 21.3548 24 20.4 24H3.6C2.64522 24 1.72955 23.6207 1.05442 22.9456C0.379285 22.2705 0 21.3548 0 20.4V3.6ZM16.02 13.356L20.22 18.96C20.664 19.56 20.244 20.4 19.5 20.4H4.572C4.40171 20.4013 4.23456 20.3542 4.08996 20.2642C3.94536 20.1743 3.82925 20.0452 3.75511 19.8919C3.68097 19.7386 3.65185 19.5674 3.67112 19.3982C3.6904 19.229 3.75728 19.0687 3.864 18.936L6.096 16.152C6.26466 15.9418 6.47838 15.7721 6.72139 15.6555C6.96439 15.5389 7.23048 15.4784 7.5 15.4784C7.76952 15.4784 8.03561 15.5389 8.27861 15.6555C8.52162 15.7721 8.73534 15.9418 8.904 16.152L9.504 16.92L12.18 13.356C12.4036 13.0579 12.6934 12.816 13.0267 12.6494C13.3599 12.4827 13.7274 12.396 14.1 12.396C14.4726 12.396 14.8401 12.4827 15.1733 12.6494C15.5066 12.816 15.7964 13.0579 16.02 13.356ZM9.84 4.776C10.116 3.684 8.784 2.916 7.98 3.696C7.7715 3.89976 7.49154 4.01384 7.2 4.01384C6.90847 4.01384 6.6285 3.89976 6.42 3.696C5.616 2.916 4.284 3.684 4.56 4.776C4.63015 5.05746 4.58795 5.35518 4.44235 5.60606C4.29675 5.85694 4.05919 6.04128 3.78 6.12C2.7 6.432 2.7 7.968 3.78 8.28C4.356 8.448 4.704 9.036 4.56 9.624C4.284 10.716 5.616 11.484 6.42 10.704C6.6285 10.5002 6.90847 10.3862 7.2 10.3862C7.49154 10.3862 7.7715 10.5002 7.98 10.704C8.784 11.484 10.116 10.716 9.84 9.624C9.76985 9.34254 9.81205 9.04482 9.95765 8.79394C10.1033 8.54306 10.3408 8.35872 10.62 8.28C11.7 7.968 11.7 6.432 10.62 6.12C10.3408 6.04128 10.1033 5.85694 9.95765 5.60606C9.81205 5.35518 9.76985 5.05746 9.84 4.776Z" fill="#e5e5e5"/>
</svg>
